<svg fill="none" height="24" viewBox="0 0 76 24" width="76" xmlns="http://www.w3.org/2000/svg">
<g id="Mask group">
<mask height="24" id="mask0_186_27" maskUnits="userSpaceOnUse" style="mask-type:alpha" width="76" x="0" y="0">
<rect fill="#D9D9D9" height="24" id="Rectangle 47" width="76"></rect>
</mask>
<g mask="url(#mask0_186_27)">
<g id="auraquantic">
<g id="grupo2">
<g id="Grupo 160370">
<path d="M40.738 10.432C40.7698 10.7226 40.7391 11.0166 40.6478 11.2943C40.5566 11.572 40.4069 11.8269 40.209 12.042C39.6375 12.4059 38.96 12.5665 38.2859 12.498H34.681C33.405 12.6125 32.1283 12.286 31.064 11.573C30.6845 11.2224 30.3892 10.7907 30.2 10.31C30.0107 9.82936 29.9324 9.31215 29.9709 8.797V8.26801C29.9183 7.72662 29.9993 7.18059 30.2067 6.67777C30.4142 6.17496 30.7418 5.73071 31.1609 5.384C32.2812 4.72313 33.577 4.42126 34.874 4.519C35.6337 4.497 36.393 4.57364 37.133 4.747C37.556 4.84847 37.9608 5.01477 38.3329 5.24001V4.51801C38.3372 4.1675 38.3091 3.81735 38.249 3.47201C38.1981 3.18553 38.0543 2.92374 37.84 2.727C37.57 2.50012 37.2481 2.34347 36.903 2.271C36.3544 2.153 35.7939 2.10063 35.233 2.11501C34.5603 2.11501 33.8433 2.11901 33.082 2.12701C32.3206 2.13501 31.6677 2.147 31.123 2.163L31.579 0.0720061C32.0276 0.0560061 32.5803 0.044003 33.237 0.036003C33.8937 0.028003 34.5587 0.0240019 35.232 0.0240019C36.7076 -0.0993858 38.1835 0.259231 39.438 1.04601C39.878 1.4099 40.2252 1.87308 40.4512 2.39741C40.6772 2.92175 40.7755 3.49227 40.738 4.062V10.432ZM32.326 8.773C32.3079 9.00753 32.3435 9.24309 32.4302 9.46178C32.5168 9.68046 32.6522 9.8765 32.826 10.035C33.3805 10.3726 34.0299 10.5204 34.676 10.456H38.329V8.245C38.332 7.97735 38.2983 7.71054 38.2289 7.452C38.1679 7.23214 38.0317 7.04068 37.844 6.911C37.5884 6.75187 37.3016 6.64956 37.003 6.61101C36.5179 6.53752 36.0276 6.50407 35.537 6.511H34.9839C34.5458 6.50479 34.1078 6.53288 33.674 6.59501C33.3841 6.63126 33.1055 6.72948 32.857 6.883C32.6615 7.01272 32.5137 7.20267 32.436 7.424C32.3488 7.69555 32.3082 7.97991 32.316 8.26501L32.326 8.773Z" fill="#1785B0" id="Trazado 83170"></path>
<path d="M48.7649 12.5C47.3808 12.5917 45.9995 12.2831 44.786 11.611C44.3206 11.2615 43.9532 10.7977 43.7195 10.2646C43.4858 9.73152 43.3936 9.14714 43.4519 8.568V0.026001H45.909V8.076C45.9058 8.42063 45.9292 8.76498 45.979 9.106C46.0179 9.38532 46.1402 9.64639 46.3299 9.855C46.5658 10.0847 46.8619 10.2428 47.1839 10.311C47.7023 10.4267 48.233 10.4777 48.764 10.463C49.2909 10.4782 49.8177 10.4272 50.3319 10.311C50.6499 10.2412 50.9418 10.0832 51.174 9.855C51.3641 9.64663 51.4865 9.38545 51.5249 9.106C51.5747 8.76498 51.5981 8.42063 51.5949 8.076V0.026001H54.052V8.568C54.1102 9.14713 54.018 9.73148 53.7843 10.2646C53.5506 10.7976 53.1833 11.2614 52.7179 11.611C51.5132 12.2815 50.1407 12.5902 48.7649 12.5Z" fill="#1785B0" id="Trazado 83171"></path>
<path d="M56.768 12.376V3.886C56.7509 3.27306 56.8622 2.66332 57.0949 2.096C57.2965 1.62599 57.615 1.21532 58.02 0.903001C58.4486 0.58398 58.9385 0.356906 59.4589 0.236002C60.072 0.08965 60.7007 0.0187926 61.331 0.0250031H63.0629C63.4683 0.0250031 63.804 0.0330052 64.07 0.0490052L63.649 2.085H63.415C63.275 2.085 63.103 2.08501 62.9 2.07301C62.697 2.06101 62.4789 2.06101 62.2449 2.06101H61.566C61.1318 2.04692 60.698 2.09815 60.279 2.21301C60.0047 2.29022 59.7604 2.4493 59.5789 2.669C59.4162 2.88805 59.315 3.14666 59.2859 3.418C59.2446 3.75204 59.2253 4.08843 59.228 4.425V12.376H56.77H56.768Z" fill="#1785B0" id="Trazado 83172"></path>
<path d="M75.071 10.432C75.1029 10.7226 75.0721 11.0166 74.9808 11.2943C74.8896 11.572 74.7399 11.8269 74.542 12.042C73.9705 12.4058 73.293 12.5665 72.619 12.498H69.019C67.7431 12.6125 66.4663 12.286 65.402 11.573C65.0224 11.2225 64.7269 10.7908 64.5375 10.3102C64.348 9.82948 64.2695 9.31223 64.308 8.79701V8.26801C64.2552 7.72662 64.3361 7.18055 64.5436 6.67772C64.751 6.17489 65.0789 5.73066 65.498 5.38401C66.6181 4.72278 67.9141 4.42088 69.2111 4.51901C69.9707 4.49703 70.73 4.57366 71.47 4.747C71.893 4.84849 72.2978 5.01479 72.67 5.24001V4.51801C72.6743 4.1675 72.6462 3.81735 72.5861 3.47201C72.5352 3.1855 72.3914 2.92369 72.177 2.72701C71.907 2.50019 71.5851 2.34356 71.24 2.27101C70.6915 2.15301 70.1309 2.10064 69.5701 2.11501C68.8974 2.11501 68.1804 2.11901 67.4191 2.12701C66.6577 2.13501 66.0046 2.147 65.46 2.163L65.917 0.0720089C66.3657 0.0560089 66.9183 0.0440058 67.5749 0.0360058C68.2316 0.0280058 68.8967 0.0240048 69.5701 0.0240048C71.0457 -0.0995287 72.5216 0.259099 73.776 1.04601C74.2159 1.40996 74.5632 1.87314 74.7892 2.39746C75.0152 2.92179 75.1135 3.49228 75.076 4.06201V10.431L75.071 10.432ZM66.659 8.77301C66.641 9.00753 66.6765 9.2431 66.7632 9.46178C66.8498 9.68046 66.9852 9.87651 67.159 10.035C67.7139 10.3728 68.3636 10.5206 69.01 10.456H72.663V8.24501C72.666 7.97735 72.6324 7.71053 72.563 7.45201C72.5019 7.23218 72.3656 7.04074 72.178 6.91101C71.9224 6.75188 71.6356 6.64957 71.337 6.61101C70.8519 6.53752 70.3615 6.50406 69.871 6.511H69.318C68.8798 6.50479 68.4419 6.53288 68.008 6.59501C67.7182 6.63123 67.4395 6.72945 67.191 6.88301C66.9956 7.01273 66.8477 7.20267 66.77 7.42401C66.6827 7.69554 66.6422 7.97991 66.65 8.26501L66.659 8.77301Z" fill="#1785B0" id="Trazado 83173"></path>
</g>
<g id="Grupo 160373">
<g id="Grupo 160372">
<g id="Grupo 160371">
<path d="M42.086 22.694C41.3885 22.74 40.6925 22.5845 40.081 22.246C39.8465 22.0697 39.6614 21.8359 39.5436 21.5672C39.4259 21.2985 39.3796 21.0039 39.409 20.712V16.407H40.648V20.465C40.6464 20.6386 40.658 20.8122 40.683 20.984C40.7024 21.1247 40.7641 21.2562 40.86 21.361C40.979 21.4769 41.1285 21.5567 41.291 21.591C41.5535 21.6497 41.8222 21.6756 42.091 21.668C42.3565 21.6758 42.622 21.6499 42.881 21.591C43.0411 21.5556 43.188 21.4759 43.305 21.361C43.4004 21.2559 43.4621 21.1246 43.482 20.984C43.507 20.8122 43.5187 20.6386 43.517 20.465V16.407H44.756V20.712C44.7853 21.0039 44.7389 21.2984 44.6212 21.5671C44.5034 21.8359 44.3184 22.0697 44.084 22.246C43.475 22.5846 42.7812 22.7401 42.086 22.694Z" fill="#10B6CE" id="Trazado 83174"></path>
<path d="M52.256 21.652C52.272 21.7984 52.2566 21.9464 52.2107 22.0863C52.1648 22.2262 52.0896 22.3546 51.99 22.463C51.7021 22.6466 51.3606 22.7276 51.021 22.693H49.204C48.5607 22.7506 47.9173 22.5858 47.381 22.226C47.1895 22.0493 47.0405 21.8316 46.9451 21.5891C46.8497 21.3467 46.8103 21.0858 46.83 20.826V20.56C46.8035 20.2872 46.8443 20.0121 46.9489 19.7587C47.0536 19.5054 47.2187 19.2816 47.43 19.107C47.9948 18.7738 48.6481 18.6217 49.302 18.671C49.685 18.6601 50.0678 18.6988 50.441 18.786C50.6545 18.8369 50.859 18.9206 51.047 19.034V18.671C51.049 18.4944 51.0346 18.318 51.0039 18.144C50.978 17.9996 50.9057 17.8676 50.7979 17.768C50.6618 17.6533 50.4993 17.5742 50.325 17.538C50.0484 17.4785 49.7657 17.4523 49.4829 17.46C49.1436 17.46 48.7823 17.462 48.399 17.466C48.0156 17.47 47.6866 17.476 47.412 17.484L47.6419 16.43C47.8679 16.422 48.1466 16.416 48.4779 16.412C48.8093 16.408 49.1443 16.406 49.4829 16.406C50.2267 16.344 50.9705 16.5247 51.6029 16.921C51.8245 17.1045 51.9993 17.338 52.113 17.6022C52.2267 17.8665 52.2761 18.154 52.257 18.441V21.651L52.256 21.652ZM48.016 20.816C48.0072 20.9345 48.0256 21.0533 48.0698 21.1636C48.114 21.2738 48.1828 21.3724 48.271 21.452C48.5504 21.622 48.8775 21.6964 49.203 21.664H51.044V20.55C51.0463 20.4151 51.0301 20.2805 50.9959 20.15C50.9654 20.039 50.8967 19.9424 50.802 19.877C50.6731 19.7969 50.5285 19.7454 50.378 19.726C50.1334 19.6899 49.8862 19.6738 49.639 19.678H49.356C49.1352 19.6749 48.9145 19.6893 48.696 19.721C48.5499 19.7394 48.4094 19.7889 48.284 19.866C48.1856 19.9317 48.1112 20.0275 48.072 20.139C48.0279 20.2759 48.0072 20.4192 48.011 20.563L48.016 20.816Z" fill="#10B6CE" id="Trazado 83175"></path>
<path d="M54.307 22.694V18.389C54.28 18.1009 54.3257 17.8105 54.4399 17.5446C54.5542 17.2787 54.7333 17.0457 54.9609 16.867C55.6008 16.5641 56.3 16.407 57.0079 16.407C57.7159 16.407 58.415 16.5641 59.0549 16.867C59.2827 17.0456 59.462 17.2786 59.5763 17.5445C59.6905 17.8105 59.7361 18.1008 59.709 18.389V22.694H58.47V18.637C58.4716 18.4634 58.4599 18.2899 58.4349 18.118C58.4155 17.9773 58.3538 17.8458 58.2579 17.741C58.1373 17.6245 57.9862 17.5448 57.822 17.511C57.2845 17.4086 56.7324 17.4086 56.1949 17.511C56.0306 17.5446 55.8793 17.6244 55.7589 17.741C55.6635 17.8461 55.6018 17.9775 55.5819 18.118C55.5569 18.2899 55.5453 18.4634 55.547 18.637V22.695L54.307 22.694Z" fill="#10B6CE" id="Trazado 83176"></path>
<path d="M61.7111 14.917L62.991 14.685V16.404H65.3061L65.0871 17.464H62.9871V20.389C62.9836 20.6091 62.9977 20.8291 63.0291 21.047C63.0453 21.19 63.1021 21.3254 63.193 21.437C63.2864 21.5332 63.408 21.5973 63.5401 21.62C63.7309 21.6563 63.9249 21.6727 64.1191 21.669H65.2281L65.0091 22.705H64.131C63.7282 22.7132 63.3257 22.6763 62.9311 22.595C62.654 22.5404 62.3969 22.4119 62.1871 22.223C61.995 22.0319 61.8636 21.7884 61.8091 21.523C61.7342 21.1613 61.7006 20.7923 61.709 20.423V14.915L61.7111 14.917Z" fill="#10B6CE" id="Trazado 83177"></path>
<path d="M68.637 14.559C68.6082 14.7092 68.5299 14.8455 68.4147 14.946C68.2995 15.0466 68.1539 15.1057 68.0012 15.114C67.8485 15.1223 67.6974 15.0792 67.572 14.9916C67.4466 14.9041 67.3542 14.7771 67.3093 14.6309C67.2645 14.4846 67.2698 14.3276 67.3246 14.1848C67.3793 14.042 67.4804 13.9216 67.6115 13.8429C67.7425 13.7641 67.8962 13.7315 68.048 13.7501C68.1998 13.7688 68.3409 13.8378 68.449 13.946C68.59 14.1176 68.6576 14.3379 68.637 14.559ZM67.204 16.417H68.479V22.695H67.204V16.417Z" fill="#10B6CE" id="Trazado 83178"></path>
<path d="M73.3939 17.458C73.1232 17.4535 72.8527 17.4716 72.585 17.512C72.3987 17.5372 72.2255 17.6217 72.091 17.753C71.9578 17.9039 71.8719 18.0906 71.844 18.29C71.794 18.6011 71.7718 18.916 71.778 19.231V19.871C71.7714 20.1862 71.7956 20.5014 71.85 20.812C71.8822 21.0126 71.9726 21.1993 72.11 21.349C72.2471 21.48 72.4221 21.5644 72.61 21.59C72.8694 21.6299 73.1315 21.648 73.3939 21.644C73.8366 21.644 74.1847 21.642 74.438 21.638C74.6913 21.634 74.9143 21.628 75.1069 21.62L74.89 22.67C74.6807 22.678 74.4313 22.684 74.142 22.688C73.8526 22.692 73.6033 22.694 73.3939 22.694C72.935 22.7029 72.4769 22.6541 72.03 22.549C71.6926 22.4705 71.3819 22.3039 71.13 22.066C70.8905 21.8233 70.7196 21.5213 70.635 21.191C70.5254 20.7595 70.4746 20.3151 70.484 19.87V19.23C70.4746 18.7849 70.5254 18.3405 70.635 17.909C70.7198 17.5787 70.8906 17.2768 71.13 17.034C71.3821 16.7963 71.6926 16.6297 72.03 16.551C72.4769 16.4458 72.935 16.3971 73.3939 16.406C73.6273 16.406 73.894 16.408 74.194 16.412C74.494 16.416 74.7896 16.426 75.0809 16.442L74.864 17.492C74.534 17.476 74.257 17.466 74.031 17.462C73.805 17.458 73.5939 17.458 73.3939 17.458Z" fill="#10B6CE" id="Trazado 83179"></path>
</g>
</g>
<path d="M37.29 21.191C37.3994 20.7591 37.4502 20.3145 37.441 19.869V19.229C37.4505 18.7835 37.3997 18.3389 37.29 17.907C37.2038 17.5762 37.0313 17.2742 36.79 17.032C36.538 16.7943 36.2274 16.6276 35.89 16.549C35.4431 16.4439 34.9849 16.3952 34.526 16.404H32.876C32.4171 16.3952 31.9588 16.4439 31.512 16.549C31.1744 16.6273 30.8638 16.794 30.612 17.032C30.3725 17.2748 30.2017 17.5767 30.117 17.907C30.0076 18.3389 29.9568 18.7836 29.966 19.229V19.869C29.9565 20.3145 30.0073 20.7592 30.117 21.191C30.2016 21.5213 30.3724 21.8233 30.612 22.066C30.8639 22.3039 31.1745 22.4706 31.512 22.549C31.9588 22.6541 32.4171 22.7028 32.876 22.694H34.46L33.769 21.64H32.817C32.574 21.6415 32.3312 21.6238 32.091 21.587C31.9032 21.5609 31.7283 21.4766 31.591 21.346C31.4533 21.1965 31.3629 21.0097 31.331 20.809C31.2765 20.4984 31.2524 20.1833 31.259 19.868V19.228C31.2529 18.913 31.275 18.5981 31.325 18.287C31.3532 18.0878 31.4391 17.9011 31.572 17.75C31.7066 17.6183 31.8803 17.5337 32.067 17.509C32.3347 17.4686 32.6053 17.4505 32.876 17.455H34.526C34.7967 17.4505 35.0673 17.4685 35.335 17.509C35.5217 17.5337 35.6954 17.6183 35.83 17.75C35.9631 17.901 36.049 18.0877 36.077 18.287C36.127 18.5981 36.1491 18.913 36.143 19.228V19.868C36.1496 20.1833 36.1255 20.4984 36.071 20.809C36.0388 21.0096 35.9484 21.1963 35.811 21.346C35.7766 21.3798 35.7391 21.4103 35.699 21.437L35.209 20.691H34.075L36.008 23.729H37.142L36.321 22.385C36.4934 22.3038 36.6515 22.195 36.789 22.063C37.0307 21.8222 37.2037 21.5211 37.29 21.191Z" fill="#10B6CE" id="Trazado 83180"></path>
</g>
</g>
<g id="grupo1">
<g id="Grupo 160376">
<g id="Grupo 160375">
<path d="M18.294 0H4.416C3.24586 0.00342959 2.12462 0.469785 1.2972 1.2972C0.469785 2.12462 0.00342959 3.24586 0 4.416V18.294C0.00342959 19.4641 0.469785 20.5854 1.2972 21.4128C2.12462 22.2402 3.24586 22.7066 4.416 22.71H18.294C19.4641 22.7066 20.5854 22.2402 21.4128 21.4128C22.2402 20.5854 22.7066 19.4641 22.71 18.294V4.416C22.7066 3.24586 22.2402 2.12462 21.4128 1.2972C20.5854 0.469785 19.4641 0.00342959 18.294 0Z" fill="url(#paint0_linear_186_27)" id="Trazado 83181"></path>
</g>
</g>
<path d="M18.053 12.262C18.053 10.111 15.353 9.13602 13.568 8.63502C12.6477 8.41834 11.7031 8.32285 10.758 8.35101C9.14459 8.22944 7.53263 8.60495 6.13901 9.42701C5.61776 9.85848 5.21027 10.4112 4.95225 11.0367C4.69422 11.6623 4.59353 12.3415 4.659 13.015V13.673C4.61112 14.3138 4.70857 14.9572 4.94405 15.5551C5.17954 16.153 5.54699 16.69 6.019 17.126C6.92567 17.894 8.42567 18.2777 10.519 18.277H12.83L11.103 15.736H10.52C9.71691 15.8159 8.90962 15.6323 8.22001 15.213C8.0028 15.0163 7.83332 14.7727 7.72449 14.5006C7.61567 14.2286 7.57037 13.9352 7.59202 13.643V13.015C7.58232 12.6604 7.63303 12.3066 7.74201 11.969C7.83852 11.6938 8.02212 11.4575 8.26501 11.296C8.57428 11.1047 8.92115 10.9822 9.282 10.937C9.8219 10.8613 10.3669 10.8278 10.912 10.837H11.599C12.2092 10.8268 12.8193 10.8666 13.423 10.956C13.7945 11.0036 14.1513 11.1308 14.469 11.329C14.7024 11.4903 14.8716 11.7285 14.947 12.002C15.0319 12.324 15.0719 12.6561 15.066 12.989V15.739H14.215L12.915 13.83H11.144L15.307 19.955H17.078L15.908 18.233C16.4443 18.2085 16.9616 18.0274 17.396 17.712C17.6419 17.4448 17.8279 17.1281 17.9413 16.7832C18.0548 16.4382 18.0932 16.073 18.054 15.712V12.27L18.053 12.262Z" fill="white" id="Trazado 83182"></path>
<path d="M11.205 5.36C11.903 5.34215 12.6005 5.40762 13.283 5.55501C13.7125 5.64539 14.1131 5.8405 14.449 6.123C14.7153 6.36798 14.8938 6.69368 14.957 7.05C15.0272 7.49114 15.0606 7.93734 15.057 8.384C16.2703 8.6256 17.3424 9.32908 18.047 10.346V7.783C18.0941 7.07436 17.9724 6.36466 17.6918 5.71222C17.4112 5.05978 16.9798 4.48324 16.433 4.03C15.3563 3.18333 13.6123 2.75967 11.201 2.759C10.3637 2.759 9.53667 2.764 8.72 2.774C7.90333 2.784 7.21566 2.799 6.657 2.819L6.08899 5.41901C6.76632 5.39967 7.57867 5.38467 8.526 5.37401C9.47333 5.36334 10.3663 5.35867 11.205 5.36Z" fill="white" id="Trazado 83183"></path>
</g>
</g>
</g>
</g>
<defs>
<linearGradient gradientUnits="userSpaceOnUse" id="paint0_linear_186_27" x1="15.897" x2="6.81299" y1="-1.15821" y2="23.8682">
<stop offset="0.313" stop-color="#1785B0"></stop>
<stop offset="0.637" stop-color="#179DBE"></stop>
<stop offset="1" stop-color="#17BCD0"></stop>
</linearGradient>
</defs>
</svg>